<svg width="1253" height="1117" viewBox="0 0 1253 1117" fill="none" xmlns="http://www.w3.org/2000/svg">
<rect width="903.632" height="542.179" transform="matrix(0.866025 0.5 -0.866025 0.5 469.875 -6.10352e-05)" fill="#313131"/>
<rect width="54.2179" height="393.955" transform="matrix(0.866025 0.5 -2.20305e-08 1 0.334473 271.089)" fill="#242424"/>
<rect width="54.2179" height="393.955" transform="matrix(0.866025 0.5 -2.20305e-08 1 735.891 695.796)" fill="#242424"/>
<path d="M1165.12 501.516L1205.74 478.021L1205.74 871.976L1158.79 844.867L1165.12 501.516Z" fill="#242424"/>
<rect width="54.2179" height="393.955" transform="matrix(0.866025 -0.5 2.20305e-08 1 1205.78 478.021)" fill="#484848"/>
<path d="M47.3237 297.687L88.8908 321.842L94.2778 664.539L47.3237 691.648L47.3237 297.687Z" fill="#484848"/>
<rect width="54.2179" height="392.605" transform="matrix(0.866025 -0.5 2.20305e-08 1 782.88 722.905)" fill="#484848"/>
<rect width="795.089" height="36.995" transform="matrix(0.866025 0.5 -2.20305e-08 1 47.3237 296.391)" fill="#262626"/>
<rect width="542.58" height="54.2179" transform="matrix(0.866025 -0.5 2.20305e-08 1 782.88 722.905)" fill="#484848"/>
<rect width="42.1544" height="42.1544" transform="matrix(0.866025 0.5 -0.866025 0.5 290.1 161.007)" fill="#222222"/>
<rect width="46.3699" height="46.3699" transform="matrix(0.866025 0.5 -0.866025 0.5 289.956 43.8179)" fill="#6FB047"/>
<rect width="30.8893" height="30.8893" transform="matrix(0.866025 0.5 -0.866025 0.5 290.039 166.487)" fill="#484848"/>
<path d="M290.039 166.487L316.79 181.932L290.039 197.377L290.039 166.487Z" fill="#2F2F2F"/>
<rect width="42.1544" height="63.2316" transform="matrix(0.866025 0.5 -2.20305e-08 1 253.593 182.084)" fill="#242424"/>
<rect width="46.3699" height="63.2316" transform="matrix(0.866025 0.5 -2.20305e-08 1 249.799 67.0028)" fill="#76BB4C"/>
<rect width="6.32316" height="44.1838" transform="matrix(0.866025 0.5 -2.20305e-08 1 284.576 150.047)" fill="#A38A4C"/>
<rect width="42.1544" height="63.2316" transform="matrix(0.866025 -0.5 2.20305e-08 1 290.056 202.951)" fill="#484848"/>
<rect width="46.3699" height="63.2316" transform="matrix(0.866025 -0.5 2.20305e-08 1 290.056 90.1878)" fill="#89DA57"/>
<path d="M290.056 153.389L295.532 150.227L295.532 194.164L290.056 197.325L290.056 153.389Z" fill="#C1A55B"/>
<rect width="42.1544" height="42.1544" transform="matrix(0.866025 0.5 -0.866025 0.5 823.384 467.235)" fill="#222222"/>
<rect width="46.3699" height="46.3699" transform="matrix(0.866025 0.5 -0.866025 0.5 823.24 350.046)" fill="#6FB047"/>
<rect width="30.8893" height="30.8893" transform="matrix(0.866025 0.5 -0.866025 0.5 823.323 472.715)" fill="#484848"/>
<path d="M823.323 472.715L850.074 488.16L823.323 503.604L823.323 472.715Z" fill="#2F2F2F"/>
<rect width="42.1544" height="63.2316" transform="matrix(0.866025 0.5 -2.20305e-08 1 786.877 488.312)" fill="#242424"/>
<rect width="46.3699" height="63.2316" transform="matrix(0.866025 0.5 -2.20305e-08 1 783.083 373.231)" fill="#76BB4C"/>
<rect width="6.32316" height="44.1838" transform="matrix(0.866025 0.5 -2.20305e-08 1 817.86 456.275)" fill="#A38A4C"/>
<rect width="42.1544" height="63.2316" transform="matrix(0.866025 -0.5 2.20305e-08 1 823.341 509.179)" fill="#484848"/>
<rect width="46.3699" height="63.2316" transform="matrix(0.866025 -0.5 2.20305e-08 1 823.341 396.416)" fill="#89DA57"/>
<path d="M823.341 459.616L828.817 456.455L828.817 500.391L823.341 503.553L823.341 459.616Z" fill="#C1A55B"/>
<rect width="313.313" height="192.808" transform="matrix(0.866025 0.5 -0.866025 0.5 457.108 268.516)" fill="#0D0D0D"/>
<rect width="109.901" height="58.8064" rx="2.86666" transform="matrix(0.866025 0.5 -0.866025 0.5 437.489 381.55)" fill="#242424"/>
<rect width="19.2808" height="14.4606" rx="2.86666" transform="matrix(0.866025 0.5 -0.866025 0.5 432.896 296.955)" fill="#242424"/>
<rect width="19.2808" height="14.4606" rx="2.86666" transform="matrix(0.866025 0.5 -0.866025 0.5 449.594 287.315)" fill="#242424"/>
<rect width="19.2808" height="14.4606" rx="2.86666" transform="matrix(0.866025 0.5 -0.866025 0.5 516.385 345.158)" fill="#242424"/>
<rect width="19.2808" height="14.4606" rx="2.86666" transform="matrix(0.866025 0.5 -0.866025 0.5 533.082 335.517)" fill="#242424"/>
<rect width="19.2808" height="14.4606" rx="2.86666" transform="matrix(0.866025 0.5 -0.866025 0.5 599.873 393.36)" fill="#242424"/>
<rect width="19.2808" height="14.4606" rx="2.86666" transform="matrix(0.866025 0.5 -0.866025 0.5 616.571 383.719)" fill="#242424"/>
<rect width="19.2808" height="14.4606" rx="2.86666" transform="matrix(0.866025 0.5 -0.866025 0.5 399.501 316.236)" fill="#242424"/>
<rect width="19.2808" height="14.4606" rx="2.86666" transform="matrix(0.866025 0.5 -0.866025 0.5 482.99 364.438)" fill="#242424"/>
<rect width="19.2808" height="14.4606" rx="2.86666" transform="matrix(0.866025 0.5 -0.866025 0.5 566.478 412.64)" fill="#242424"/>
<rect width="43.3818" height="14.4606" rx="2.86666" transform="matrix(0.866025 0.5 -0.866025 0.5 416.199 306.596)" fill="#242424"/>
<rect width="19.2808" height="14.4606" rx="2.86666" transform="matrix(0.866025 0.5 -0.866025 0.5 499.688 354.798)" fill="#242424"/>
<rect width="19.2808" height="14.4606" rx="2.86666" transform="matrix(0.866025 0.5 -0.866025 0.5 583.175 403)" fill="#242424"/>
<rect width="19.2808" height="14.4606" rx="2.86666" transform="matrix(0.866025 0.5 -0.866025 0.5 382.804 325.877)" fill="#242424"/>
<rect width="91.5838" height="14.4606" rx="2.86666" transform="matrix(0.866025 0.5 -0.866025 0.5 466.292 374.079)" fill="#242424"/>
<rect width="19.2808" height="14.4606" rx="2.86666" transform="matrix(0.866025 0.5 -0.866025 0.5 549.78 422.281)" fill="#242424"/>
<rect width="19.2808" height="14.4606" rx="2.86666" transform="matrix(0.866025 0.5 -0.866025 0.5 474.641 321.057)" fill="#242424"/>
<rect width="19.2808" height="14.4606" rx="2.86666" transform="matrix(0.866025 0.5 -0.866025 0.5 491.338 311.416)" fill="#242424"/>
<rect width="19.2808" height="14.4606" rx="2.86666" transform="matrix(0.866025 0.5 -0.866025 0.5 558.129 369.259)" fill="#242424"/>
<rect width="19.2808" height="14.4606" rx="2.86666" transform="matrix(0.866025 0.5 -0.866025 0.5 574.827 359.618)" fill="#242424"/>
<rect width="19.2808" height="14.4606" rx="2.86666" transform="matrix(0.866025 0.5 -0.866025 0.5 641.617 417.461)" fill="#242424"/>
<rect width="19.2808" height="14.4606" rx="2.86666" transform="matrix(0.866025 0.5 -0.866025 0.5 658.315 407.82)" fill="#242424"/>
<rect width="19.2808" height="14.4606" rx="2.86666" transform="matrix(0.866025 0.5 -0.866025 0.5 441.246 340.337)" fill="#242424"/>
<rect width="19.2808" height="14.4606" rx="2.86666" transform="matrix(0.866025 0.5 -0.866025 0.5 524.733 388.539)" fill="#242424"/>
<rect width="19.2808" height="14.4606" rx="2.86666" transform="matrix(0.866025 0.5 -0.866025 0.5 608.222 436.741)" fill="#242424"/>
<rect width="19.2808" height="14.4606" rx="2.86666" transform="matrix(0.866025 0.5 -0.866025 0.5 457.943 330.697)" fill="#242424"/>
<rect width="19.2808" height="14.4606" rx="2.86666" transform="matrix(0.866025 0.5 -0.866025 0.5 541.431 378.899)" fill="#242424"/>
<rect width="19.2808" height="14.4606" rx="2.86666" transform="matrix(0.866025 0.5 -0.866025 0.5 424.547 349.978)" fill="#242424"/>
<rect width="19.2808" height="14.4606" rx="2.86666" transform="matrix(0.866025 0.5 -0.866025 0.5 591.524 446.382)" fill="#242424"/>
<rect width="19.2808" height="14.4606" rx="2.86666" transform="matrix(0.866025 0.5 -0.866025 0.5 453.769 309.006)" fill="#242424"/>
<rect width="19.2808" height="14.4606" rx="2.86666" transform="matrix(0.866025 0.5 -0.866025 0.5 470.466 299.366)" fill="#242424"/>
<rect width="19.2808" height="14.4606" rx="2.86666" transform="matrix(0.866025 0.5 -0.866025 0.5 537.257 357.208)" fill="#242424"/>
<rect width="19.2808" height="14.4606" rx="2.86666" transform="matrix(0.866025 0.5 -0.866025 0.5 553.955 347.568)" fill="#242424"/>
<rect width="19.2808" height="14.4606" rx="2.86666" transform="matrix(0.866025 0.5 -0.866025 0.5 620.745 405.41)" fill="#242424"/>
<rect width="19.2808" height="14.4606" rx="2.86666" transform="matrix(0.866025 0.5 -0.866025 0.5 637.442 395.77)" fill="#242424"/>
<rect width="19.2808" height="14.4606" rx="2.86666" transform="matrix(0.866025 0.5 -0.866025 0.5 420.373 328.287)" fill="#242424"/>
<rect width="19.2808" height="14.4606" rx="2.86666" transform="matrix(0.866025 0.5 -0.866025 0.5 503.861 376.489)" fill="#242424"/>
<rect width="19.2808" height="14.4606" rx="2.86666" transform="matrix(0.866025 0.5 -0.866025 0.5 587.35 424.691)" fill="#242424"/>
<rect width="19.2808" height="14.4606" rx="2.86666" transform="matrix(0.866025 0.5 -0.866025 0.5 520.56 366.848)" fill="#242424"/>
<rect width="19.2808" height="14.4606" rx="2.86666" transform="matrix(0.866025 0.5 -0.866025 0.5 604.047 415.05)" fill="#242424"/>
<rect width="19.2808" height="14.4606" rx="2.86666" transform="matrix(0.866025 0.5 -0.866025 0.5 403.676 337.927)" fill="#242424"/>
<rect width="19.2808" height="14.4606" rx="2.86666" transform="matrix(0.866025 0.5 -0.866025 0.5 570.652 434.331)" fill="#242424"/>
<rect width="19.2808" height="14.4606" rx="2.86666" transform="matrix(0.866025 0.5 -0.866025 0.5 495.513 333.107)" fill="#242424"/>
<rect width="19.2808" height="14.4606" rx="2.86666" transform="matrix(0.866025 0.5 -0.866025 0.5 512.21 323.467)" fill="#242424"/>
<rect width="19.2808" height="14.4606" rx="2.86666" transform="matrix(0.866025 0.5 -0.866025 0.5 579.001 381.309)" fill="#242424"/>
<rect width="19.2808" height="14.4606" rx="2.86666" transform="matrix(0.866025 0.5 -0.866025 0.5 595.699 371.669)" fill="#242424"/>
<rect width="19.2808" height="14.4606" rx="2.86666" transform="matrix(0.866025 0.5 -0.866025 0.5 662.49 429.511)" fill="#242424"/>
<rect width="19.2808" height="14.4606" rx="2.86666" transform="matrix(0.866025 0.5 -0.866025 0.5 679.187 419.871)" fill="#242424"/>
<rect width="19.2808" height="14.4606" rx="2.86666" transform="matrix(0.866025 0.5 -0.866025 0.5 462.118 352.388)" fill="#242424"/>
<rect width="19.2808" height="14.4606" rx="2.86666" transform="matrix(0.866025 0.5 -0.866025 0.5 545.606 400.59)" fill="#242424"/>
<rect width="19.2808" height="14.4606" rx="2.86666" transform="matrix(0.866025 0.5 -0.866025 0.5 629.094 448.792)" fill="#242424"/>
<rect width="19.2808" height="14.4606" rx="2.86666" transform="matrix(0.866025 0.5 -0.866025 0.5 478.815 342.747)" fill="#242424"/>
<rect width="19.2808" height="14.4606" rx="2.86666" transform="matrix(0.866025 0.5 -0.866025 0.5 562.303 390.95)" fill="#242424"/>
<rect width="43.3818" height="14.4606" rx="2.86666" transform="matrix(0.866025 0.5 -0.866025 0.5 624.92 427.101)" fill="#242424"/>
<rect width="19.2808" height="14.4606" rx="2.86666" transform="matrix(0.866025 0.5 -0.866025 0.5 445.419 362.028)" fill="#242424"/>
<rect width="19.2808" height="14.4606" rx="2.86666" transform="matrix(0.866025 0.5 -0.866025 0.5 612.396 458.432)" fill="#242424"/>
<rect width="313.313" height="201.484" transform="matrix(0.866025 0.5 -2.20305e-08 1 457.874 67.5139)" fill="#0A0A0A"/>
<rect width="298.852" height="180.275" rx="2.86666" transform="matrix(0.866025 0.5 -2.20305e-08 1 464.136 78.3595)" fill="black"/>
<rect width="60.2525" height="3.37414" rx="1.68707" transform="matrix(0.866025 0.5 -2.20305e-08 1 476.659 113.065)" fill="#05DCA8"/>
<rect width="60.2525" height="3.37414" rx="1.68707" transform="matrix(0.866025 0.5 -2.20305e-08 1 476.659 185.368)" fill="#7005DC"/>
<rect width="60.2525" height="3.37414" rx="1.68707" transform="matrix(0.866025 0.5 -2.20305e-08 1 537.188 220.314)" fill="#05DCA8"/>
<rect width="28.4392" height="3.37414" rx="1.68707" transform="matrix(0.866025 0.5 -2.20305e-08 1 476.659 137.166)" fill="#DCC605"/>
<rect width="28.4392" height="3.37414" rx="1.68707" transform="matrix(0.866025 0.5 -2.20305e-08 1 542.615 175.245)" fill="#7005DC"/>
<rect width="28.4392" height="3.37414" rx="1.68707" transform="matrix(0.866025 0.5 -2.20305e-08 1 509.637 156.206)" fill="#06CAF5"/>
<rect width="28.4392" height="3.37414" rx="1.68707" transform="matrix(0.866025 0.5 -2.20305e-08 1 537.188 148.011)" fill="#DCC605"/>
<rect width="28.4392" height="3.37414" rx="1.68707" transform="matrix(0.866025 0.5 -2.20305e-08 1 476.659 209.469)" fill="#05DCA8"/>
<rect width="80.0153" height="3.37414" rx="1.68707" transform="matrix(0.866025 0.5 -2.20305e-08 1 476.659 161.267)" fill="#06CAF5"/>
<rect width="80.0153" height="3.37414" rx="1.68707" transform="matrix(0.866025 0.5 -2.20305e-08 1 476.659 233.57)" fill="#7005DC"/>
<rect width="80.0153" height="3.37414" rx="1.68707" transform="matrix(0.866025 0.5 -2.20305e-08 1 509.637 228.509)" fill="#06CAF5"/>
<rect width="200.929" height="7.71232" transform="matrix(0.866025 -0.5 2.20305e-08 1 561.508 520.981)" fill="#090909"/>
<rect width="313.359" height="7.71232" transform="matrix(0.866025 0.5 -2.20305e-08 1 290.131 364.301)" fill="#161616"/>
<rect width="313.087" height="7.54093" transform="matrix(0.866025 0.5 -0.866025 0.5 464.39 63.7352)" fill="#232323"/>
<path d="M728.769 224.171L735.517 220.274L735.517 420.556L728.769 424.452L728.769 224.171Z" fill="#080808"/>
</svg>
