<svg width="1562" height="1151" viewBox="0 0 1562 1151" fill="none" xmlns="http://www.w3.org/2000/svg">
<g filter="url(#filter0_d)">
<path fill-rule="evenodd" clip-rule="evenodd" d="M664.588 136.342L727.023 184.461L640.553 296.657L578.118 248.539L664.588 136.342ZM581.939 262.491C577.496 256.148 576.122 251.129 578.118 248.538L609.335 272.598L640.553 296.657C638.557 299.247 633.353 299.197 626.087 296.516C618.821 293.836 610.088 288.745 601.808 282.364C593.529 275.983 586.382 268.835 581.939 262.491Z" fill="black"/>
<path fill-rule="evenodd" clip-rule="evenodd" d="M664.588 136.342L727.023 184.461L640.553 296.657L578.118 248.539L664.588 136.342ZM581.939 262.491C577.496 256.148 576.122 251.129 578.118 248.538L609.335 272.598L640.553 296.657C638.557 299.247 633.353 299.197 626.087 296.516C618.821 293.836 610.088 288.745 601.808 282.364C593.529 275.983 586.382 268.835 581.939 262.491Z" fill="url(#paint0_linear)" fill-opacity="0.5"/>
</g>
<ellipse rx="39.413" ry="12.3301" transform="matrix(-0.792061 -0.610442 -0.610442 0.792061 695.805 160.402)" fill="black"/>
<ellipse rx="39.413" ry="12.3301" transform="matrix(-0.792061 -0.610442 -0.610442 0.792061 695.805 160.402)" fill="url(#paint1_radial)"/>
<g filter="url(#filter1_d)">
<circle cx="1185.5" cy="655.5" r="216.5" fill="black"/>
<circle cx="1185.5" cy="655.5" r="216.5" fill="url(#paint2_linear)" fill-opacity="0.5"/>
<circle cx="1185.5" cy="655.5" r="216.5" fill="url(#paint3_radial)" fill-opacity="0.5"/>
</g>
<g filter="url(#filter2_f)">
<ellipse cx="778.294" cy="1023" rx="342.752" ry="8" fill="black"/>
</g>
<path d="M326.643 390.129C317.192 392.661 311.584 402.375 314.116 411.826L435.573 865.109C438.105 874.56 447.819 880.168 457.27 877.636L1111.37 702.371C1120.82 699.839 1126.43 690.125 1123.89 680.674L1002.44 227.391C999.906 217.94 990.191 212.332 980.741 214.864L326.643 390.129Z" fill="url(#paint4_linear)"/>
<path d="M326.643 390.129C317.192 392.661 311.584 402.375 314.116 411.826L435.573 865.109C438.105 874.56 447.819 880.168 457.27 877.636L1111.37 702.371C1120.82 699.839 1126.43 690.125 1123.89 680.674L1002.44 227.391C999.906 217.94 990.191 212.332 980.741 214.864L326.643 390.129Z" fill="url(#paint5_linear)"/>
<path d="M326.643 390.129C317.192 392.661 311.584 402.375 314.116 411.826L435.573 865.109C438.105 874.56 447.819 880.168 457.27 877.636L1111.37 702.371C1120.82 699.839 1126.43 690.125 1123.89 680.674L1002.44 227.391C999.906 217.94 990.191 212.332 980.741 214.864L326.643 390.129Z" stroke="#333333" stroke-width="1.41727"/>
<path d="M1105.63 668.872L1106.31 668.688L1106.13 668.004L990.024 234.692C988.707 229.778 983.655 226.861 978.741 228.178L335.03 400.66C330.115 401.977 327.199 407.028 328.516 411.943L444.621 845.254L444.805 845.939L445.489 845.755L1105.63 668.872Z" fill="white" stroke="#444444" stroke-width="1.41727"/>
<path d="M330.375 903.886L1234.39 661.657L1238.74 677.899C1239.7 681.496 1238.22 685.302 1235.04 687.241C1230.88 689.773 1225.08 693.229 1220.56 695.604C1211.69 700.263 1174.63 712.332 1174.63 712.332L414.336 916.052C413.584 916.254 412.855 916.456 412.105 916.663C406.139 918.312 377.286 926.034 357.492 926.835C352.981 927.018 347.066 926.917 342.656 926.789C338.957 926.682 335.801 924.136 334.843 920.561L330.375 903.886Z" fill="url(#paint6_linear)"/>
<path d="M330.375 903.886L1234.39 661.657L1238.74 677.899C1239.7 681.496 1238.22 685.302 1235.04 687.241C1230.88 689.773 1225.08 693.229 1220.56 695.604C1211.69 700.263 1174.63 712.332 1174.63 712.332L414.336 916.052C413.584 916.254 412.855 916.456 412.105 916.663C406.139 918.312 377.286 926.034 357.492 926.835C352.981 927.018 347.066 926.917 342.656 926.789C338.957 926.682 335.801 924.136 334.843 920.561L330.375 903.886Z" fill="url(#paint7_linear)" fill-opacity="0.3"/>
<path d="M714.669 802.808L851.038 766.268C853.306 774.734 848.282 783.436 839.816 785.705L734.106 814.03C725.639 816.298 716.937 811.274 714.669 802.808Z" fill="#C4C4C4"/>
<path d="M714.669 802.808L851.038 766.268C853.306 774.734 848.282 783.436 839.816 785.705L734.106 814.03C725.639 816.298 716.937 811.274 714.669 802.808Z" fill="url(#paint8_linear)"/>
<path d="M714.669 802.808L851.038 766.268C853.306 774.734 848.282 783.436 839.816 785.705L734.106 814.03C725.639 816.298 716.937 811.274 714.669 802.808Z" fill="url(#paint9_linear)"/>
<g filter="url(#filter3_d)">
<circle cx="1065.5" cy="216.5" r="96.5" fill="black"/>
<circle cx="1065.5" cy="216.5" r="96.5" fill="url(#paint10_linear)" fill-opacity="0.5"/>
<circle cx="1065.5" cy="216.5" r="96.5" fill="url(#paint11_radial)" fill-opacity="0.5"/>
</g>
<g filter="url(#filter4_d)">
<circle cx="350.5" cy="790.71" r="68.5" fill="black"/>
<circle cx="350.5" cy="790.71" r="68.5" fill="url(#paint12_linear)" fill-opacity="0.5"/>
<circle cx="350.5" cy="790.71" r="68.5" fill="url(#paint13_radial)" fill-opacity="0.5"/>
</g>
<g filter="url(#filter5_d)">
<circle cx="289.5" cy="312.5" r="129.5" fill="black"/>
<circle cx="289.5" cy="312.5" r="129.5" fill="url(#paint14_linear)" fill-opacity="0.5"/>
<circle cx="289.5" cy="312.5" r="129.5" fill="url(#paint15_radial)" fill-opacity="0.5"/>
</g>
<g filter="url(#filter6_d)">
<path fill-rule="evenodd" clip-rule="evenodd" d="M690.987 741.106L614.154 786.162L695.122 924.23L695.12 924.23C696.99 927.418 702.83 928.101 711.356 926.13C719.882 924.159 730.396 919.695 740.584 913.72C750.773 907.745 759.802 900.749 765.684 894.27C771.567 887.792 773.822 882.362 771.953 879.174L771.954 879.174L690.987 741.106Z" fill="black"/>
<path fill-rule="evenodd" clip-rule="evenodd" d="M690.987 741.106L614.154 786.162L695.122 924.23L695.12 924.23C696.99 927.418 702.83 928.101 711.356 926.13C719.882 924.159 730.396 919.695 740.584 913.72C750.773 907.745 759.802 900.749 765.684 894.27C771.567 887.792 773.822 882.362 771.953 879.174L771.954 879.174L690.987 741.106Z" fill="url(#paint16_linear)" fill-opacity="0.4"/>
</g>
<ellipse cx="652.57" cy="763.634" rx="44.5344" ry="13.9323" transform="rotate(-30.3887 652.57 763.634)" fill="black"/>
<ellipse cx="652.57" cy="763.634" rx="44.5344" ry="13.9323" transform="rotate(-30.3887 652.57 763.634)" fill="url(#paint17_radial)" fill-opacity="0.5"/>
<defs>
<filter id="filter0_d" x="520.591" y="136.342" width="356.432" height="370.081" filterUnits="userSpaceOnUse" color-interpolation-filters="sRGB">
<feFlood flood-opacity="0" result="BackgroundImageFix"/>
<feColorMatrix in="SourceAlpha" type="matrix" values="0 0 0 0 0 0 0 0 0 0 0 0 0 0 0 0 0 0 127 0"/>
<feOffset dx="50" dy="100"/>
<feGaussianBlur stdDeviation="50"/>
<feColorMatrix type="matrix" values="0 0 0 0 0 0 0 0 0 0 0 0 0 0 0 0 0 0 0.3 0"/>
<feBlend mode="normal" in2="BackgroundImageFix" result="effect1_dropShadow"/>
<feBlend mode="normal" in="SourceGraphic" in2="effect1_dropShadow" result="shape"/>
</filter>
<filter id="filter1_d" x="919" y="439" width="633" height="633" filterUnits="userSpaceOnUse" color-interpolation-filters="sRGB">
<feFlood flood-opacity="0" result="BackgroundImageFix"/>
<feColorMatrix in="SourceAlpha" type="matrix" values="0 0 0 0 0 0 0 0 0 0 0 0 0 0 0 0 0 0 127 0"/>
<feOffset dx="50" dy="100"/>
<feGaussianBlur stdDeviation="50"/>
<feColorMatrix type="matrix" values="0 0 0 0 0 0 0 0 0 0 0 0 0 0 0 0 0 0 0.3 0"/>
<feBlend mode="normal" in2="BackgroundImageFix" result="effect1_dropShadow"/>
<feBlend mode="normal" in="SourceGraphic" in2="effect1_dropShadow" result="shape"/>
</filter>
<filter id="filter2_f" x="371.542" y="951" width="813.504" height="144" filterUnits="userSpaceOnUse" color-interpolation-filters="sRGB">
<feFlood flood-opacity="0" result="BackgroundImageFix"/>
<feBlend mode="normal" in="SourceGraphic" in2="BackgroundImageFix" result="shape"/>
<feGaussianBlur stdDeviation="32" result="effect1_foregroundBlur"/>
</filter>
<filter id="filter3_d" x="919" y="120" width="393" height="393" filterUnits="userSpaceOnUse" color-interpolation-filters="sRGB">
<feFlood flood-opacity="0" result="BackgroundImageFix"/>
<feColorMatrix in="SourceAlpha" type="matrix" values="0 0 0 0 0 0 0 0 0 0 0 0 0 0 0 0 0 0 127 0"/>
<feOffset dx="50" dy="100"/>
<feGaussianBlur stdDeviation="50"/>
<feColorMatrix type="matrix" values="0 0 0 0 0 0 0 0 0 0 0 0 0 0 0 0 0 0 0.3 0"/>
<feBlend mode="normal" in2="BackgroundImageFix" result="effect1_dropShadow"/>
<feBlend mode="normal" in="SourceGraphic" in2="effect1_dropShadow" result="shape"/>
</filter>
<filter id="filter4_d" x="232" y="722.21" width="337" height="337" filterUnits="userSpaceOnUse" color-interpolation-filters="sRGB">
<feFlood flood-opacity="0" result="BackgroundImageFix"/>
<feColorMatrix in="SourceAlpha" type="matrix" values="0 0 0 0 0 0 0 0 0 0 0 0 0 0 0 0 0 0 127 0"/>
<feOffset dx="50" dy="100"/>
<feGaussianBlur stdDeviation="50"/>
<feColorMatrix type="matrix" values="0 0 0 0 0 0 0 0 0 0 0 0 0 0 0 0 0 0 0.3 0"/>
<feBlend mode="normal" in2="BackgroundImageFix" result="effect1_dropShadow"/>
<feBlend mode="normal" in="SourceGraphic" in2="effect1_dropShadow" result="shape"/>
</filter>
<filter id="filter5_d" x="110" y="183" width="459" height="459" filterUnits="userSpaceOnUse" color-interpolation-filters="sRGB">
<feFlood flood-opacity="0" result="BackgroundImageFix"/>
<feColorMatrix in="SourceAlpha" type="matrix" values="0 0 0 0 0 0 0 0 0 0 0 0 0 0 0 0 0 0 127 0"/>
<feOffset dx="50" dy="100"/>
<feGaussianBlur stdDeviation="50"/>
<feColorMatrix type="matrix" values="0 0 0 0 0 0 0 0 0 0 0 0 0 0 0 0 0 0 0.3 0"/>
<feBlend mode="normal" in2="BackgroundImageFix" result="effect1_dropShadow"/>
<feBlend mode="normal" in="SourceGraphic" in2="effect1_dropShadow" result="shape"/>
</filter>
<filter id="filter6_d" x="564.153" y="741.106" width="364.848" height="395.143" filterUnits="userSpaceOnUse" color-interpolation-filters="sRGB">
<feFlood flood-opacity="0" result="BackgroundImageFix"/>
<feColorMatrix in="SourceAlpha" type="matrix" values="0 0 0 0 0 0 0 0 0 0 0 0 0 0 0 0 0 0 127 0"/>
<feOffset dx="50" dy="100"/>
<feGaussianBlur stdDeviation="50"/>
<feColorMatrix type="matrix" values="0 0 0 0 0 0 0 0 0 0 0 0 0 0 0 0 0 0 0.3 0"/>
<feBlend mode="normal" in2="BackgroundImageFix" result="effect1_dropShadow"/>
<feBlend mode="normal" in="SourceGraphic" in2="effect1_dropShadow" result="shape"/>
</filter>
<linearGradient id="paint0_linear" x1="680.025" y1="245.442" x2="604.992" y2="213.669" gradientUnits="userSpaceOnUse">
<stop stop-color="white" stop-opacity="0.75"/>
<stop offset="1" stop-color="#373737" stop-opacity="0"/>
</linearGradient>
<radialGradient id="paint1_radial" cx="0" cy="0" r="1" gradientUnits="userSpaceOnUse" gradientTransform="translate(11.397 9.81683) rotate(97.125) scale(50.8701 162.606)">
<stop stop-color="white" stop-opacity="0.49"/>
<stop offset="1" stop-opacity="0"/>
</radialGradient>
<linearGradient id="paint2_linear" x1="1031.66" y1="503.186" x2="1351.06" y2="799.154" gradientUnits="userSpaceOnUse">
<stop stop-color="white" stop-opacity="0.47"/>
<stop offset="1" stop-color="white" stop-opacity="0"/>
</linearGradient>
<radialGradient id="paint3_radial" cx="0" cy="0" r="1" gradientUnits="userSpaceOnUse" gradientTransform="translate(1132.01 548.014) rotate(53.9993) scale(241.795)">
<stop stop-color="white"/>
<stop offset="1" stop-color="white" stop-opacity="0"/>
</radialGradient>
<linearGradient id="paint4_linear" x1="310.399" y1="395.215" x2="1134.02" y2="678.68" gradientUnits="userSpaceOnUse">
<stop stop-color="#333333"/>
<stop offset="0.53125" stop-color="#596368"/>
<stop offset="1" stop-color="#333333"/>
</linearGradient>
<linearGradient id="paint5_linear" x1="653.875" y1="303.181" x2="787.759" y2="802.843" gradientUnits="userSpaceOnUse">
<stop offset="0.6875" stop-opacity="0.4"/>
<stop offset="0.883584" stop-color="#333333" stop-opacity="0.643"/>
<stop offset="1" stop-opacity="0.94"/>
</linearGradient>
<linearGradient id="paint6_linear" x1="1234.39" y1="661.657" x2="330.375" y2="903.886" gradientUnits="userSpaceOnUse">
<stop stop-color="#212121"/>
<stop offset="0.5" stop-color="#555555"/>
<stop offset="1" stop-color="#212121"/>
</linearGradient>
<linearGradient id="paint7_linear" x1="782.38" y1="782.771" x2="791.052" y2="815.133" gradientUnits="userSpaceOnUse">
<stop stop-color="#666666"/>
<stop offset="0.5" stop-color="#666666"/>
<stop offset="0.541667" stop-opacity="0.5"/>
<stop offset="1"/>
</linearGradient>
<linearGradient id="paint8_linear" x1="782.853" y1="784.538" x2="786.961" y2="799.867" gradientUnits="userSpaceOnUse">
<stop stop-color="#999999"/>
<stop offset="0.151042" stop-color="#777777"/>
<stop offset="0.609375" stop-color="#444444"/>
<stop offset="0.822917" stop-color="#333333"/>
<stop offset="1" stop-color="#222222"/>
</linearGradient>
<linearGradient id="paint9_linear" x1="714.669" y1="802.808" x2="851.038" y2="766.268" gradientUnits="userSpaceOnUse">
<stop stop-color="#333333"/>
<stop offset="0.130208" stop-color="#333333" stop-opacity="0.42"/>
<stop offset="0.932292" stop-color="#333333" stop-opacity="0.118947"/>
<stop offset="1" stop-color="#333333" stop-opacity="0.83"/>
</linearGradient>
<linearGradient id="paint10_linear" x1="996.928" y1="148.609" x2="1139.29" y2="280.531" gradientUnits="userSpaceOnUse">
<stop stop-color="white" stop-opacity="0.47"/>
<stop offset="1" stop-color="white" stop-opacity="0"/>
</linearGradient>
<radialGradient id="paint11_radial" cx="0" cy="0" r="1" gradientUnits="userSpaceOnUse" gradientTransform="translate(1041.66 168.591) rotate(53.9993) scale(107.775)">
<stop stop-color="white"/>
<stop offset="1" stop-color="white" stop-opacity="0"/>
</radialGradient>
<linearGradient id="paint12_linear" x1="301.825" y1="742.519" x2="402.882" y2="836.162" gradientUnits="userSpaceOnUse">
<stop stop-color="white" stop-opacity="0.47"/>
<stop offset="1" stop-color="white" stop-opacity="0"/>
</linearGradient>
<radialGradient id="paint13_radial" cx="0" cy="0" r="1" gradientUnits="userSpaceOnUse" gradientTransform="translate(333.576 756.702) rotate(53.9993) scale(76.5032)">
<stop stop-color="white"/>
<stop offset="1" stop-color="white" stop-opacity="0"/>
</radialGradient>
<linearGradient id="paint14_linear" x1="197.479" y1="221.393" x2="388.529" y2="398.427" gradientUnits="userSpaceOnUse">
<stop stop-color="white" stop-opacity="0.47"/>
<stop offset="1" stop-color="white" stop-opacity="0"/>
</linearGradient>
<radialGradient id="paint15_radial" cx="0" cy="0" r="1" gradientUnits="userSpaceOnUse" gradientTransform="translate(257.506 248.207) rotate(53.9993) scale(144.63)">
<stop stop-color="white"/>
<stop offset="1" stop-color="white" stop-opacity="0"/>
</radialGradient>
<linearGradient id="paint16_linear" x1="658.161" y1="861.206" x2="746.79" y2="836.264" gradientUnits="userSpaceOnUse">
<stop stop-color="white" stop-opacity="0.75"/>
<stop offset="1" stop-color="#373737" stop-opacity="0"/>
</linearGradient>
<radialGradient id="paint17_radial" cx="0" cy="0" r="1" gradientUnits="userSpaceOnUse" gradientTransform="translate(620.914 760.794) rotate(97.125) scale(57.4803 183.735)">
<stop stop-color="white" stop-opacity="0.49"/>
<stop offset="1" stop-opacity="0"/>
</radialGradient>
</defs>
</svg>
