<svg xmlns="http://www.w3.org/2000/svg" viewBox="0 0 174240 320" width="174240" height="320"><path d="M0 192l60 5.3C120 203 240 213 360 208s240-27 360-58.7c120-32.3 240-74.3 360-80C1200 64 1320 96 1380 112l60 16V0H0zM1440 192l60 5.3c60 5.7 180 15.7 300 10.7s240-27 360-58.7c120-32.3 240-74.3 360-80C2640 64 2760 96 2820 112l60 16V0H1440zM2880 192l60 5.3c60 5.7 180 15.7 300 10.7s240-27 360-58.7c120-32.3 240-74.3 360-80C4080 64 4200 96 4260 112l60 16V0H2880zM4320 192l60 5.3c60 5.7 180 15.7 300 10.7s240-27 360-58.7c120-32.3 240-74.3 360-80C5520 64 5640 96 5700 112l60 16V0H4320z" fill="#ffffff" fill-rule="evenodd"/><path d="M5760 192l60 5.3c60 5.7 180 15.7 300 10.7s240-27 360-58.7c120-32.3 240-74.3 360-80C6960 64 7080 96 7140 112l60 16V0H5760zM7200 192l60 5.3c60 5.7 180 15.7 300 10.7s240-27 360-58.7c120-32.3 240-74.3 360-80C8400 64 8520 96 8580 112l60 16V0H7200z" fill="#feffff" fill-rule="evenodd"/><path d="M8640 192l60 5.3c60 5.7 180 15.7 300 10.7s240-27 360-58.7c120-32.3 240-74.3 360-80 120-5.3 240 26.7 300 42.7l60 16V0H8640z" fill="#fefeff" fill-rule="evenodd"/><path d="M10080 192l60 5.3c60 5.7 180 15.7 300 10.7s240-27 360-58.7c120-32.3 240-74.3 360-80 120-5.3 240 26.7 300 42.7l60 16V0h-1440z" fill="#fdfeff" fill-rule="evenodd"/><path d="M11520 192l60 5.3c60 5.7 180 15.7 300 10.7s240-27 360-58.7c120-32.3 240-74.3 360-80 120-5.3 240 26.7 300 42.7l60 16V0h-1440zM12960 192l60 5.3c60 5.7 180 15.7 300 10.7s240-27 360-58.7c120-32.3 240-74.3 360-80 120-5.3 240 26.7 300 42.7l60 16V0h-1440z" fill="#fcfeff" fill-rule="evenodd"/><path d="M14400 192l60 5.3c60 5.7 180 15.7 300 10.7s240-27 360-58.7c120-32.3 240-74.3 360-80 120-5.3 240 26.7 300 42.7l60 16V0h-1440z" fill="#fbfdff" fill-rule="evenodd"/><path d="M15840 192l60 5.3c60 5.7 180 15.7 300 10.7s240-27 360-58.7c120-32.3 240-74.3 360-80 120-5.3 240 26.7 300 42.7l60 16V0h-1440z" fill="#fafdff" fill-rule="evenodd"/><path d="M17280 192l60 5.3c60 5.7 180 15.7 300 10.7s240-27 360-58.7c120-32.3 240-74.3 360-80 120-5.3 240 26.7 300 42.7l60 16V0h-1440z" fill="#f8fcff" fill-rule="evenodd"/><path d="M18720 192l60 5.3c60 5.7 180 15.7 300 10.7s240-27 360-58.7c120-32.3 240-74.3 360-80 120-5.3 240 26.7 300 42.7l60 16V0h-1440z" fill="#f7fcff" fill-rule="evenodd"/><path d="M20160 192l60 5.3c60 5.7 180 15.7 300 10.7s240-27 360-58.7c120-32.3 240-74.3 360-80 120-5.3 240 26.7 300 42.7l60 16V0h-1440z" fill="#f6fbff" fill-rule="evenodd"/><path d="M21600 192l60 5.3c60 5.7 180 15.7 300 10.7s240-27 360-58.7c120-32.3 240-74.3 360-80 120-5.3 240 26.7 300 42.7l60 16V0h-1440z" fill="#f4fbff" fill-rule="evenodd"/><path d="M23040 192l60 5.3c60 5.7 180 15.7 300 10.7s240-27 360-58.7c120-32.3 240-74.3 360-80 120-5.3 240 26.7 300 42.7l60 16V0h-1440z" fill="#f2faff" fill-rule="evenodd"/><path d="M24480 192l60 5.3c60 5.7 180 15.7 300 10.7s240-27 360-58.7c120-32.3 240-74.3 360-80 120-5.3 240 26.7 300 42.7l60 16V0h-1440z" fill="#f0f9ff" fill-rule="evenodd"/><path d="M25920 192l60 5.3c60 5.7 180 15.7 300 10.7s240-27 360-58.7c120-32.3 240-74.3 360-80 120-5.3 240 26.7 300 42.7l60 16V0h-1440z" fill="#eef8ff" fill-rule="evenodd"/><path d="M27360 192l60 5.3c60 5.7 180 15.7 300 10.7s240-27 360-58.7c120-32.3 240-74.3 360-80 120-5.3 240 26.7 300 42.7l60 16V0h-1440z" fill="#ecf7ff" fill-rule="evenodd"/><path d="M28800 192l60 5.3c60 5.7 180 15.7 300 10.7s240-27 360-58.7c120-32.3 240-74.3 360-80 120-5.3 240 26.7 300 42.7l60 16V0h-1440z" fill="#e9f6ff" fill-rule="evenodd"/><path d="M30240 192l60 5.3c60 5.7 180 15.7 300 10.7s240-27 360-58.7c120-32.3 240-74.3 360-80 120-5.3 240 26.7 300 42.7l60 16V0h-1440z" fill="#e7f5ff" fill-rule="evenodd"/><path d="M31680 192l60 5.3c60 5.7 180 15.7 300 10.7s240-27 360-58.7c120-32.3 240-74.3 360-80 120-5.3 240 26.7 300 42.7l60 16V0h-1440z" fill="#e4f4ff" fill-rule="evenodd"/><path d="M33120 192l60 5.3c60 5.7 180 15.7 300 10.7s240-27 360-58.7c120-32.3 240-74.3 360-80 120-5.3 240 26.7 300 42.7l60 16V0h-1440z" fill="#e0f3ff" fill-rule="evenodd"/><path d="M34560 192l60 5.3c60 5.7 180 15.7 300 10.7s240-27 360-58.7c120-32.3 240-74.3 360-80 120-5.3 240 26.7 300 42.7l60 16V0h-1440z" fill="#ddf1ff" fill-rule="evenodd"/><path d="M36000 192l60 5.3c60 5.7 180 15.7 300 10.7s240-27 360-58.7c120-32.3 240-74.3 360-80 120-5.3 240 26.7 300 42.7l60 16V0h-1440z" fill="#d9f0ff" fill-rule="evenodd"/><path d="M37440 192l60 5.3c60 5.7 180 15.7 300 10.7s240-27 360-58.7c120-32.3 240-74.3 360-80 120-5.3 240 26.7 300 42.7l60 16V0h-1440z" fill="#d5eeff" fill-rule="evenodd"/><path d="M38880 192l60 5.3c60 5.7 180 15.7 300 10.7s240-27 360-58.7c120-32.3 240-74.3 360-80 120-5.3 240 26.7 300 42.7l60 16V0h-1440z" fill="#d1edff" fill-rule="evenodd"/><path d="M40320 192l60 5.3c60 5.7 180 15.7 300 10.7s240-27 360-58.7c120-32.3 240-74.3 360-80 120-5.3 240 26.7 300 42.7l60 16V0h-1440z" fill="#ccebff" fill-rule="evenodd"/><path d="M41760 192l60 5.3c60 5.7 180 15.7 300 10.7s240-27 360-58.7c120-32.3 240-74.3 360-80 120-5.3 240 26.7 300 42.7l60 16V0h-1440z" fill="#c8e9ff" fill-rule="evenodd"/><path d="M43200 192l60 5.3c60 5.7 180 15.7 300 10.7s240-27 360-58.7c120-32.3 240-74.3 360-80 120-5.3 240 26.7 300 42.7l60 16V0h-1440z" fill="#c3e7ff" fill-rule="evenodd"/><path d="M44640 192l60 5.3c60 5.7 180 15.7 300 10.7s240-27 360-58.7c120-32.3 240-74.3 360-80 120-5.3 240 26.7 300 42.7l60 16V0h-1440z" fill="#bde5ff" fill-rule="evenodd"/><path d="M46080 192l60 5.3c60 5.7 180 15.7 300 10.7s240-27 360-58.7c120-32.3 240-74.3 360-80 120-5.3 240 26.7 300 42.7l60 16V0h-1440z" fill="#b8e3ff" fill-rule="evenodd"/><path d="M47520 192l60 5.3c60 5.7 180 15.7 300 10.7s240-27 360-58.7c120-32.3 240-74.3 360-80 120-5.3 240 26.7 300 42.7l60 16V0h-1440z" fill="#b3e0ff" fill-rule="evenodd"/><path d="M48960 192l60 5.3c60 5.7 180 15.7 300 10.7s240-27 360-58.7c120-32.3 240-74.3 360-80 120-5.3 240 26.7 300 42.7l60 16V0h-1440z" fill="#addeff" fill-rule="evenodd"/><path d="M50400 192l60 5.3c60 5.7 180 15.7 300 10.7s240-27 360-58.7c120-32.3 240-74.3 360-80 120-5.3 240 26.7 300 42.7l60 16V0h-1440z" fill="#a7dcff" fill-rule="evenodd"/><path d="M51840 192l60 5.3c60 5.7 180 15.7 300 10.7s240-27 360-58.7c120-32.3 240-74.3 360-80 120-5.3 240 26.7 300 42.7l60 16V0h-1440z" fill="#a1daff" fill-rule="evenodd"/><path d="M53280 192l60 5.3c60 5.7 180 15.7 300 10.7s240-27 360-58.7c120-32.3 240-74.3 360-80 120-5.3 240 26.7 300 42.7l60 16V0h-1440z" fill="#9cd7ff" fill-rule="evenodd"/><path d="M54720 192l60 5.3c60 5.7 180 15.7 300 10.7s240-27 360-58.7c120-32.3 240-74.3 360-80 120-5.3 240 26.7 300 42.7l60 16V0h-1440z" fill="#96d5ff" fill-rule="evenodd"/><path d="M56160 192l60 5.3c60 5.7 180 15.7 300 10.7s240-27 360-58.7c120-32.3 240-74.3 360-80 120-5.3 240 26.7 300 42.7l60 16V0h-1440z" fill="#90d3ff" fill-rule="evenodd"/><path d="M57600 192l60 5.3c60 5.7 180 15.7 300 10.7s240-27 360-58.7c120-32.3 240-74.3 360-80 120-5.3 240 26.7 300 42.7l60 16V0h-1440z" fill="#8ad0ff" fill-rule="evenodd"/><path d="M59040 192l60 5.3c60 5.7 180 15.7 300 10.7s240-27 360-58.7c120-32.3 240-74.3 360-80 120-5.3 240 26.7 300 42.7l60 16V0h-1440z" fill="#85ceff" fill-rule="evenodd"/><path d="M60480 192l60 5.3c60 5.7 180 15.7 300 10.7s240-27 360-58.7c120-32.3 240-74.3 360-80 120-5.3 240 26.7 300 42.7l60 16V0h-1440z" fill="#80ccff" fill-rule="evenodd"/><path d="M61920 192l60 5.3c60 5.7 180 15.7 300 10.7s240-27 360-58.7c120-32.3 240-74.3 360-80 120-5.3 240 26.7 300 42.7l60 16V0h-1440z" fill="#7acaff" fill-rule="evenodd"/><path d="M63360 192l60 5.3c60 5.7 180 15.7 300 10.7s240-27 360-58.7c120-32.3 240-74.3 360-80 120-5.3 240 26.7 300 42.7l60 16V0h-1440z" fill="#75c8ff" fill-rule="evenodd"/><path d="M64800 192l60 5.3c60 5.7 180 15.7 300 10.7s240-27 360-58.7c120-32.3 240-74.3 360-80 120-5.3 240 26.7 300 42.7l60 16V0h-1440z" fill="#70c6ff" fill-rule="evenodd"/><path d="M66240 192l60 5.3c60 5.7 180 15.7 300 10.7s240-27 360-58.7c120-32.3 240-74.3 360-80 120-5.3 240 26.7 300 42.7l60 16V0h-1440z" fill="#6cc4ff" fill-rule="evenodd"/><path d="M67680 192l60 5.3c60 5.7 180 15.7 300 10.7s240-27 360-58.7c120-32.3 240-74.3 360-80 120-5.3 240 26.7 300 42.7l60 16V0h-1440z" fill="#67c2ff" fill-rule="evenodd"/><path d="M69120 192l60 5.3c60 5.7 180 15.7 300 10.7s240-27 360-58.7c120-32.3 240-74.3 360-80 120-5.3 240 26.7 300 42.7l60 16V0h-1440z" fill="#63c0ff" fill-rule="evenodd"/><path d="M70560 192l60 5.3c60 5.7 180 15.7 300 10.7s240-27 360-58.7c120-32.3 240-74.3 360-80 120-5.3 240 26.7 300 42.7l60 16V0h-1440z" fill="#5ebfff" fill-rule="evenodd"/><path d="M72000 192l60 5.3c60 5.7 180 15.7 300 10.7s240-27 360-58.7c120-32.3 240-74.3 360-80 120-5.3 240 26.7 300 42.7l60 16V0h-1440z" fill="#5abdff" fill-rule="evenodd"/><path d="M73440 192l60 5.3c60 5.7 180 15.7 300 10.7s240-27 360-58.7c120-32.3 240-74.3 360-80 120-5.3 240 26.7 300 42.7l60 16V0h-1440z" fill="#56bcff" fill-rule="evenodd"/><path d="M74880 192l60 5.3c60 5.7 180 15.7 300 10.7s240-27 360-58.7c120-32.3 240-74.3 360-80 120-5.3 240 26.7 300 42.7l60 16V0h-1440z" fill="#53baff" fill-rule="evenodd"/><path d="M76320 192l60 5.3c60 5.7 180 15.7 300 10.7s240-27 360-58.7c120-32.3 240-74.3 360-80 120-5.3 240 26.7 300 42.7l60 16V0h-1440z" fill="#4fb9ff" fill-rule="evenodd"/><path d="M77760 192l60 5.3c60 5.7 180 15.7 300 10.7s240-27 360-58.7c120-32.3 240-74.3 360-80 120-5.3 240 26.7 300 42.7l60 16V0h-1440z" fill="#4bb7ff" fill-rule="evenodd"/><path d="M79200 192l60 5.3c60 5.7 180 15.7 300 10.7s240-27 360-58.7c120-32.3 240-74.3 360-80 120-5.3 240 26.7 300 42.7l60 16V0h-1440z" fill="#48b6ff" fill-rule="evenodd"/><path d="M80640 192l60 5.3c60 5.7 180 15.7 300 10.7s240-27 360-58.7c120-32.3 240-74.3 360-80 120-5.3 240 26.7 300 42.7l60 16V0h-1440z" fill="#45b5ff" fill-rule="evenodd"/><path d="M82080 192l60 5.3c60 5.7 180 15.7 300 10.7s240-27 360-58.7c120-32.3 240-74.3 360-80 120-5.3 240 26.7 300 42.7l60 16V0h-1440z" fill="#42b3ff" fill-rule="evenodd"/><path d="M83520 192l60 5.3c60 5.7 180 15.7 300 10.7s240-27 360-58.7c120-32.3 240-74.3 360-80 120-5.3 240 26.7 300 42.7l60 16V0h-1440z" fill="#3fb2ff" fill-rule="evenodd"/><path d="M84960 192l60 5.3c60 5.7 180 15.7 300 10.7s240-27 360-58.7c120-32.3 240-74.3 360-80 120-5.3 240 26.7 300 42.7l60 16V0h-1440z" fill="#3cb1ff" fill-rule="evenodd"/><path d="M86400 192l60 5.3c60 5.7 180 15.7 300 10.7s240-27 360-58.7c120-32.3 240-74.3 360-80 120-5.3 240 26.7 300 42.7l60 16V0h-1440z" fill="#39b0ff" fill-rule="evenodd"/><path d="M87840 192l60 5.3c60 5.7 180 15.7 300 10.7s240-27 360-58.7c120-32.3 240-74.3 360-80 120-5.3 240 26.7 300 42.7l60 16V0h-1440z" fill="#37afff" fill-rule="evenodd"/><path d="M89280 192l60 5.3c60 5.7 180 15.7 300 10.7s240-27 360-58.7c120-32.3 240-74.3 360-80 120-5.3 240 26.7 300 42.7l60 16V0h-1440z" fill="#34aeff" fill-rule="evenodd"/><path d="M90720 192l60 5.3c60 5.7 180 15.7 300 10.7s240-27 360-58.7c120-32.3 240-74.3 360-80 120-5.3 240 26.7 300 42.7l60 16V0h-1440z" fill="#32adff" fill-rule="evenodd"/><path d="M92160 192l60 5.3c60 5.7 180 15.7 300 10.7s240-27 360-58.7c120-32.3 240-74.3 360-80 120-5.3 240 26.7 300 42.7l60 16V0h-1440z" fill="#2facff" fill-rule="evenodd"/><path d="M93600 192l60 5.3c60 5.7 180 15.7 300 10.7s240-27 360-58.7c120-32.3 240-74.3 360-80 120-5.3 240 26.7 300 42.7l60 16V0h-1440z" fill="#2dabff" fill-rule="evenodd"/><path d="M95040 192l60 5.3c60 5.7 180 15.7 300 10.7s240-27 360-58.7c120-32.3 240-74.3 360-80 120-5.3 240 26.7 300 42.7l60 16V0h-1440z" fill="#2baaff" fill-rule="evenodd"/><path d="M96480 192l60 5.3c60 5.7 180 15.7 300 10.7s240-27 360-58.7c120-32.3 240-74.3 360-80 120-5.3 240 26.7 300 42.7l60 16V0h-1440z" fill="#29a9ff" fill-rule="evenodd"/><path d="M97920 192l60 5.3c60 5.7 180 15.7 300 10.7s240-27 360-58.7c120-32.3 240-74.3 360-80 120-5.3 240 26.7 300 42.7l60 16V0h-1440z" fill="#27a9ff" fill-rule="evenodd"/><path d="M99360 192l60 5.3c60 5.7 180 15.7 300 10.7s240-27 360-58.7c120-32.3 240-74.3 360-80 120-5.3 240 26.7 300 42.7l60 16V0h-1440z" fill="#25a8ff" fill-rule="evenodd"/><path d="M100800 192l60 5.3c60 5.7 180 15.7 300 10.7s240-27 360-58.7c120-32.3 240-74.3 360-80 120-5.3 240 26.7 300 42.7l60 16V0h-1440z" fill="#23a7ff" fill-rule="evenodd"/><path d="M102240 192l60 5.3c60 5.7 180 15.7 300 10.7s240-27 360-58.7c120-32.3 240-74.3 360-80 120-5.3 240 26.7 300 42.7l60 16V0h-1440z" fill="#21a6ff" fill-rule="evenodd"/><path d="M103680 192l60 5.3c60 5.7 180 15.7 300 10.7s240-27 360-58.7c120-32.3 240-74.3 360-80 120-5.3 240 26.7 300 42.7l60 16V0h-1440z" fill="#20a6ff" fill-rule="evenodd"/><path d="M105120 192l60 5.3c60 5.7 180 15.7 300 10.7s240-27 360-58.7c120-32.3 240-74.3 360-80 120-5.3 240 26.7 300 42.7l60 16V0h-1440z" fill="#1ea5ff" fill-rule="evenodd"/><path d="M106560 192l60 5.3c60 5.7 180 15.7 300 10.7s240-27 360-58.7c120-32.3 240-74.3 360-80 120-5.3 240 26.7 300 42.7l60 16V0h-1440z" fill="#1ca4ff" fill-rule="evenodd"/><path d="M108000 192l60 5.3c60 5.7 180 15.7 300 10.7s240-27 360-58.7c120-32.3 240-74.3 360-80 120-5.3 240 26.7 300 42.7l60 16V0h-1440z" fill="#1ba4ff" fill-rule="evenodd"/><path d="M109440 192l60 5.3c60 5.7 180 15.7 300 10.7s240-27 360-58.7c120-32.3 240-74.3 360-80 120-5.3 240 26.7 300 42.7l60 16V0h-1440z" fill="#19a3ff" fill-rule="evenodd"/><path d="M110880 192l60 5.3c60 5.7 180 15.7 300 10.7s240-27 360-58.7c120-32.3 240-74.3 360-80 120-5.3 240 26.7 300 42.7l60 16V0h-1440z" fill="#18a3ff" fill-rule="evenodd"/><path d="M112320 192l60 5.3c60 5.7 180 15.7 300 10.7s240-27 360-58.7c120-32.3 240-74.3 360-80 120-5.3 240 26.7 300 42.7l60 16V0h-1440z" fill="#17a2ff" fill-rule="evenodd"/><path d="M113760 192l60 5.3c60 5.7 180 15.7 300 10.7s240-27 360-58.7c120-32.3 240-74.3 360-80 120-5.3 240 26.7 300 42.7l60 16V0h-1440z" fill="#15a2ff" fill-rule="evenodd"/><path d="M115200 192l60 5.3c60 5.7 180 15.7 300 10.7s240-27 360-58.7c120-32.3 240-74.3 360-80 120-5.3 240 26.7 300 42.7l60 16V0h-1440z" fill="#14a1ff" fill-rule="evenodd"/><path d="M116640 192l60 5.3c60 5.7 180 15.7 300 10.7s240-27 360-58.7c120-32.3 240-74.3 360-80 120-5.3 240 26.7 300 42.7l60 16V0h-1440z" fill="#13a1ff" fill-rule="evenodd"/><path d="M118080 192l60 5.3c60 5.7 180 15.7 300 10.7s240-27 360-58.7c120-32.3 240-74.3 360-80 120-5.3 240 26.7 300 42.7l60 16V0h-1440z" fill="#12a0ff" fill-rule="evenodd"/><path d="M119520 192l60 5.3c60 5.7 180 15.7 300 10.7s240-27 360-58.7c120-32.3 240-74.3 360-80 120-5.3 240 26.7 300 42.7l60 16V0h-1440z" fill="#11a0ff" fill-rule="evenodd"/><path d="M120960 192l60 5.3c60 5.7 180 15.7 300 10.7s240-27 360-58.7c120-32.3 240-74.3 360-80 120-5.3 240 26.7 300 42.7l60 16V0h-1440z" fill="#109fff" fill-rule="evenodd"/><path d="M122400 192l60 5.3c60 5.7 180 15.7 300 10.7s240-27 360-58.7c120-32.3 240-74.3 360-80 120-5.3 240 26.7 300 42.7l60 16V0h-1440z" fill="#0f9fff" fill-rule="evenodd"/><path d="M123840 192l60 5.3c60 5.7 180 15.7 300 10.7s240-27 360-58.7c120-32.3 240-74.3 360-80 120-5.3 240 26.7 300 42.7l60 16V0h-1440z" fill="#0e9fff" fill-rule="evenodd"/><path d="M125280 192l60 5.3c60 5.7 180 15.7 300 10.7s240-27 360-58.7c120-32.3 240-74.3 360-80 120-5.3 240 26.7 300 42.7l60 16V0h-1440z" fill="#0d9eff" fill-rule="evenodd"/><path d="M126720 192l60 5.3c60 5.7 180 15.7 300 10.7s240-27 360-58.7c120-32.3 240-74.3 360-80 120-5.3 240 26.7 300 42.7l60 16V0h-1440z" fill="#0c9eff" fill-rule="evenodd"/><path d="M128160 192l60 5.3c60 5.7 180 15.7 300 10.7s240-27 360-58.7c120-32.3 240-74.3 360-80 120-5.3 240 26.7 300 42.7l60 16V0h-1440z" fill="#0b9dff" fill-rule="evenodd"/><path d="M129600 192l60 5.3c60 5.7 180 15.7 300 10.7s240-27 360-58.7c120-32.3 240-74.3 360-80 120-5.3 240 26.7 300 42.7l60 16V0h-1440zM131040 192l60 5.3c60 5.7 180 15.7 300 10.7s240-27 360-58.7c120-32.3 240-74.3 360-80 120-5.3 240 26.7 300 42.7l60 16V0h-1440z" fill="#0a9dff" fill-rule="evenodd"/><path d="M132480 192l60 5.3c60 5.7 180 15.7 300 10.7s240-27 360-58.7c120-32.3 240-74.3 360-80 120-5.3 240 26.7 300 42.7l60 16V0h-1440z" fill="#099dff" fill-rule="evenodd"/><path d="M133920 192l60 5.3c60 5.7 180 15.7 300 10.7s240-27 360-58.7c120-32.3 240-74.3 360-80 120-5.3 240 26.7 300 42.7l60 16V0h-1440zM135360 192l60 5.3c60 5.7 180 15.7 300 10.7s240-27 360-58.7c120-32.3 240-74.3 360-80 120-5.3 240 26.7 300 42.7l60 16V0h-1440z" fill="#089cff" fill-rule="evenodd"/><path d="M136800 192l60 5.3c60 5.7 180 15.7 300 10.7s240-27 360-58.7c120-32.3 240-74.3 360-80 120-5.3 240 26.7 300 42.7l60 16V0h-1440z" fill="#079cff" fill-rule="evenodd"/><path d="M138240 192l60 5.3c60 5.7 180 15.7 300 10.7s240-27 360-58.7c120-32.3 240-74.3 360-80 120-5.3 240 26.7 300 42.7l60 16V0h-1440z" fill="#069cff" fill-rule="evenodd"/><path d="M139680 192l60 5.3c60 5.7 180 15.7 300 10.7s240-27 360-58.7c120-32.3 240-74.3 360-80 120-5.3 240 26.7 300 42.7l60 16V0h-1440z" fill="#069bff" fill-rule="evenodd"/><path d="M141120 192l60 5.3c60 5.7 180 15.7 300 10.7s240-27 360-58.7c120-32.3 240-74.3 360-80 120-5.3 240 26.7 300 42.7l60 16V0h-1440zM142560 192l60 5.3c60 5.7 180 15.7 300 10.7s240-27 360-58.7c120-32.3 240-74.3 360-80 120-5.3 240 26.7 300 42.7l60 16V0h-1440z" fill="#059bff" fill-rule="evenodd"/><path d="M144000 192l60 5.3c60 5.7 180 15.7 300 10.7s240-27 360-58.7c120-32.3 240-74.3 360-80 120-5.3 240 26.7 300 42.7l60 16V0h-1440zM145440 192l60 5.3c60 5.7 180 15.7 300 10.7s240-27 360-58.7c120-32.3 240-74.3 360-80 120-5.3 240 26.7 300 42.7l60 16V0h-1440z" fill="#049bff" fill-rule="evenodd"/><path d="M146880 192l60 5.3c60 5.7 180 15.7 300 10.7s240-27 360-58.7c120-32.3 240-74.3 360-80 120-5.3 240 26.7 300 42.7l60 16V0h-1440zM148320 192l60 5.3c60 5.7 180 15.7 300 10.7s240-27 360-58.7c120-32.3 240-74.3 360-80 120-5.3 240 26.7 300 42.7l60 16V0h-1440zM149760 192l60 5.3c60 5.7 180 15.7 300 10.7s240-27 360-58.7c120-32.3 240-74.3 360-80 120-5.3 240 26.7 300 42.7l60 16V0h-1440z" fill="#039aff" fill-rule="evenodd"/><path d="M151200 192l60 5.3c60 5.7 180 15.7 300 10.7s240-27 360-58.7c120-32.3 240-74.3 360-80 120-5.3 240 26.7 300 42.7l60 16V0h-1440zM152640 192l60 5.3c60 5.7 180 15.7 300 10.7s240-27 360-58.7c120-32.3 240-74.3 360-80 120-5.3 240 26.7 300 42.7l60 16V0h-1440zM154080 192l60 5.3c60 5.7 180 15.7 300 10.7s240-27 360-58.7c120-32.3 240-74.3 360-80 120-5.3 240 26.7 300 42.7l60 16V0h-1440z" fill="#029aff" fill-rule="evenodd"/><path d="M155520 192l60 5.3c60 5.7 180 15.7 300 10.7s240-27 360-58.7c120-32.3 240-74.3 360-80 120-5.3 240 26.7 300 42.7l60 16V0h-1440z" fill="#019aff" fill-rule="evenodd"/><path d="M156960 192l60 5.3c60 5.7 180 15.7 300 10.7s240-27 360-58.7c120-32.3 240-74.3 360-80 120-5.3 240 26.7 300 42.7l60 16V0h-1440zM158400 192l60 5.3c60 5.7 180 15.7 300 10.7s240-27 360-58.7c120-32.3 240-74.3 360-80 120-5.3 240 26.7 300 42.7l60 16V0h-1440zM159840 192l60 5.3c60 5.7 180 15.7 300 10.7s240-27 360-58.7c120-32.3 240-74.3 360-80 120-5.3 240 26.7 300 42.7l60 16V0h-1440zM161280 192l60 5.3c60 5.7 180 15.7 300 10.7s240-27 360-58.7c120-32.3 240-74.3 360-80 120-5.3 240 26.7 300 42.7l60 16V0h-1440z" fill="#0199ff" fill-rule="evenodd"/><path d="M162720 192l60 5.3c60 5.7 180 15.7 300 10.7s240-27 360-58.7c120-32.3 240-74.3 360-80 120-5.3 240 26.7 300 42.7l60 16V0h-1440zM164160 192l60 5.3c60 5.7 180 15.7 300 10.7s240-27 360-58.7c120-32.3 240-74.3 360-80 120-5.3 240 26.7 300 42.7l60 16V0h-1440zM165600 192l60 5.3c60 5.7 180 15.7 300 10.7s240-27 360-58.7c120-32.3 240-74.3 360-80 120-5.3 240 26.7 300 42.7l60 16V0h-1440zM167040 192l60 5.3c60 5.7 180 15.7 300 10.7s240-27 360-58.7c120-32.3 240-74.3 360-80 120-5.3 240 26.7 300 42.7l60 16V0h-1440zM168480 192l60 5.3c60 5.7 180 15.7 300 10.7s240-27 360-58.7c120-32.3 240-74.3 360-80 120-5.3 240 26.7 300 42.7l60 16V0h-1440zM169920 192l60 5.3c60 5.7 180 15.7 300 10.7s240-27 360-58.7c120-32.3 240-74.3 360-80 120-5.3 240 26.7 300 42.7l60 16V0h-1440zM171360 192l60 5.3c60 5.7 180 15.7 300 10.7s240-27 360-58.7c120-32.3 240-74.3 360-80 120-5.3 240 26.7 300 42.7l60 16V0h-1440zM172800 192l60 5.3c60 5.7 180 15.7 300 10.7s240-27 360-58.7c120-32.3 240-74.3 360-80 120-5.3 240 26.7 300 42.7l60 16V0h-1440z" fill="#0099ff" fill-rule="evenodd"/></svg>